<?xml version="1.0" encoding="UTF-8"?>
<svg id="Layer_1" xmlns="http://www.w3.org/2000/svg" version="1.1" viewBox="0 0 632.1 977.1">
  <!-- Generator: Adobe Illustrator 29.2.1, SVG Export Plug-In . SVG Version: 2.1.0 Build 116)  -->
  <defs>
    <style>
      .st0 {
        fill: #6ec4c6;
      }
    </style>
  </defs>
  <path class="st0" d="M595.1,0S163,128.8,5.9,443.2c-8,16-7.8,34.8.5,50.6,43.8,83.4,199.6,355.1,432.1,480.5,10.5,5.7,23.6,2.5,30.4-7.3,45.4-65.5,198.3-326.1,156-818.3l-39.2,29.6c-39,29.4-58.5,78.4-50.5,126.9,20.3,122.5,38.2,375-88.6,631.3,0,0-241.4-132.8-397.8-444.6-8.5-16.9-7.6-37.1,2.1-53.4,37.9-63.5,157.8-221.2,451.1-310.6C557.7,110.8,595.9,58.9,595.1,0h0Z"/>
  <path class="st0" d="M468.8,967c-6.9,9.9-19.9,13-30.4,7.3C206,849,50.1,577.3,6.4,493.8c-8.3-15.8-8.5-34.7-.5-50.6,21.3-42.5,47.6-81.7,77.1-117.6,3.1-3.8,6.2-7.5,9.4-11.1,7.7-9,15.7-17.8,23.8-26.4,3.2-3.4,6.4-6.8,9.7-10.1,7.7-7.9,15.6-15.6,23.5-23.1,3.3-3.1,6.7-6.2,10-9.3,7.7-7,15.5-13.9,23.4-20.6,3.3-2.8,6.7-5.6,10-8.4,7.7-6.4,15.4-12.5,23.2-18.6,3.4-2.7,6.9-5.3,10.3-7.9,7.7-5.8,15.3-11.4,23.1-17,3.4-2.4,6.9-4.9,10.3-7.3,7.6-5.3,15.3-10.5,22.9-15.6,3.5-2.3,7.1-4.6,10.6-6.9,7.5-4.9,15.1-9.6,22.6-14.2,3.7-2.3,7.3-4.5,11-6.6,7.5-4.5,15-8.9,22.4-13.1,3.7-2.1,7.3-4.2,11-6.2,7.4-4.2,14.8-8.2,22.1-12.1,3.9-2.1,7.8-4.1,11.6-6.1,7.2-3.8,14.3-7.4,21.3-10.9,4.2-2.1,8.4-4.2,12.5-6.2,6.5-3.2,13-6.3,19.3-9.2,5.3-2.5,10.5-4.9,15.6-7.2,5.5-2.5,10.9-4.9,16.2-7.2,6.5-2.8,12.7-5.5,18.8-8.1C556.3,11.6,595.1,0,595.1,0c.8,58.9-37.3,110.8-93.1,127.8-1.4.4-2.9.9-4.3,1.3-6.4,1.9-12.6,3.9-18.8,5.9-5.5,1.8-10.9,3.6-16.2,5.4-5.3,1.8-10.5,3.6-15.6,5.5-6.5,2.4-13,4.7-19.3,7.2-4.2,1.6-8.4,3.2-12.5,4.8-7.2,2.8-14.3,5.8-21.3,8.7-3.9,1.6-7.8,3.3-11.6,5-7.5,3.3-14.9,6.6-22.1,10-3.7,1.7-7.4,3.4-11,5.2-7.7,3.6-15.1,7.4-22.4,11.1-3.7,1.9-7.4,3.8-11,5.7-7.7,4.1-15.2,8.2-22.6,12.4-3.6,2-7.1,4-10.6,6.1-7.9,4.6-15.5,9.2-22.9,13.9-3.5,2.2-6.9,4.4-10.3,6.6-7.9,5.2-15.6,10.3-23.1,15.6-3.5,2.4-6.9,4.9-10.3,7.3-8,5.9-15.8,11.7-23.2,17.5-3.4,2.7-6.8,5.3-10,8-8.2,6.7-16,13.3-23.4,19.9-3.4,3-6.8,6-10,9-8.4,7.8-16.2,15.4-23.5,22.9-3.4,3.4-6.6,6.8-9.7,10.1-8.8,9.4-16.7,18.5-23.8,27.1-3.3,4-6.4,7.9-9.4,11.7-14.3,18.3-24.8,34.3-32.2,46.7-9.7,16.3-10.6,36.4-2.1,53.4,156.4,311.8,397.8,444.7,397.8,444.7,126.8-256.3,108.9-508.9,88.6-631.3-8-48.5,11.5-97.5,50.5-126.9l39.2-29.6c42.3,492.2-110.5,752.8-156,818.3Z"/>
  <path class="st0" d="M497.7,36.2v696.9c-5.4,21.7-11.6,43.6-18.8,65.7V46.6c6.5-3.6,12.7-7.1,18.8-10.3Z"/>
  <path class="st0" d="M447.1,59.8v823.4c-3.2,7.2-6.4,14.5-9.8,21.8-1.8-1.2-3.8-2.5-5.9-3.9V69.1c5.3-3.2,10.5-6.3,15.6-9.2Z"/>
  <path class="st0" d="M396.5,83.7v792.8c-4-3-8.2-6.1-12.5-9.5V90.3c3.3-1.8,6.7-3.6,10-5.3.8-.4,1.7-.9,2.5-1.3Z"/>
  <path class="st0" d="M347,110.8v726.4c-3.8-3.2-7.6-6.5-11.6-10V117.5c3.9-2.3,7.7-4.6,11.6-6.7Z"/>
  <path class="st0" d="M286.7,147.8v634.3c3.7,3.6,7.3,7.2,11,10.6V140.7l-11,7.1Z"/>
  <path class="st0" d="M248.6,173.8v568.8c-3.7-3.9-7.3-7.9-11-12V181.8c3.6-2.7,7.3-5.3,11-8Z"/>
  <path class="st0" d="M199.4,211.3v474.4c-3.6-4.4-7.1-8.9-10.6-13.4V220c1.3-1.1,2.7-2.2,4.1-3.4,2.2-1.8,4.4-3.6,6.6-5.4Z"/>
  <path class="st0" d="M150.2,254.2v365.7c-3.4-5-6.9-10.1-10.3-15.2v-340.6c3.2-3.1,6.4-6.1,9.5-9.2.3-.3.5-.5.8-.7Z"/>
  <path class="st0" d="M101.2,304.5v238.2c-3.5-6-6.9-12-10.3-18.2v-208.2c.5-.6,1-1.2,1.5-1.8,2.9-3.4,5.8-6.7,8.8-10Z"/>
  <path class="st0" d="M67.7,453.6v26.8c-3.8-8.6-3.8-18.2,0-26.8Z"/>
</svg>