<?xml version="1.0" encoding="UTF-8"?>
<svg width="1200pt" height="1200pt" version="1.1" viewBox="0 0 1200 1200" xmlns="http://www.w3.org/2000/svg">
 <path d="m679.63 608.68-0.44531 0.38281c-35.859 32.961-51.406 82.547-40.793 130.08 10.617 47.535 45.781 85.793 92.258 100.37 46.473 14.574 97.191 3.25 133.05-29.711l0.45703-0.39453v-0.003906c26.496-24.445 42.227-58.398 43.742-94.418 1.5156-36.02-11.305-71.172-35.656-97.762l-0.39453-0.44531v0.003906c-24.449-26.496-58.402-42.227-94.426-43.742-36.02-1.5156-71.176 11.305-97.766 35.652zm-20.293-20.305 0.44531-0.37109c32.086-29.594 74.59-45.27 118.21-43.594 43.617 1.6719 84.797 20.559 114.52 52.523l0.39453 0.45703v-0.003907c29.594 32.086 45.27 74.59 43.594 118.21-1.6758 43.613-20.562 84.789-52.531 114.51l-0.45703 0.39453c-32.18 29.281-74.621 44.664-118.09 42.801-43.469-1.8594-84.438-20.816-114-52.738-29.559-31.926-45.312-74.23-43.828-117.71 1.4844-43.48 20.086-84.613 51.75-114.45zm291.68 350.66 118.32 128.18c5.9141 5.8555 14.441 8.2266 22.527 6.2695 8.0898-1.957 14.586-7.9648 17.172-15.875 2.582-7.9102 0.88281-16.594-4.4922-22.949l-118.29-128.17c-1.4375 1.7188-2.9766 3.3516-4.6094 4.8828l-0.44531 0.39453-24.613 22.727 0.003906 0.003906c-1.7656 1.6211-3.6289 3.1328-5.582 4.5234zm18.457-60.406c-1.4648 4.6172-4.1094 8.7734-7.668 12.059l-0.45703 0.39453-24.156 22.332c-3.5859 3.3125-7.9727 5.6289-12.73 6.7227-0.26562 0-0.53906 0.10938-0.80469 0.17969-2.2109 0.43359-4.4688 0.60938-6.7188 0.52734-7.4531-0.28125-14.484-3.5156-19.551-8.9883l-4.4297-4.8008h0.003906c25.723-15.852 48.133-36.531 66-60.898l4.3672 4.7383 0.39453 0.44531c4.8438 5.4531 7.3789 12.574 7.0703 19.859-0.097656 2.1797-0.43359 4.3398-1.0078 6.4453-0.12109 0.33594-0.21484 0.68359-0.3125 1.0312zm-184.54 157.46v41.09-0.003906c-0.019531 9.2227-3.6914 18.066-10.215 24.586-6.5234 6.5234-15.363 10.195-24.586 10.215h-654.89c-9.2266-0.019531-18.066-3.6914-24.59-10.215-6.5195-6.5195-10.191-15.363-10.211-24.586v-878.48c0.019531-9.2227 3.6914-18.062 10.211-24.586 6.5234-6.5234 15.363-10.195 24.59-10.215h110.06l70.68-70.848c2.7266-3.1875 6.7148-5.0195 10.906-5.0156h532.59c9.1836 0.042969 17.98 3.7109 24.469 10.211 6.4883 6.4961 10.148 15.297 10.176 24.48v369.6c41.484 15.812 77.566 43.184 103.97 78.875 26.402 35.691 42.023 78.203 45.008 122.5 2.9805 44.297-6.7969 88.52-28.176 127.43l9.1211 9.8867 0.39453 0.44531c10.199 11.074 15.574 25.754 14.938 40.801-0.085937 1.8945-0.25391 3.7812-0.51562 5.6523l126.72 137.29c12.637 13.844 16.965 33.363 11.355 51.25-5.6133 17.891-20.309 31.441-38.59 35.59-18.285 4.1445-37.391-1.7461-50.168-15.465l-126.6-137.18c-1.9219 0.10938-3.8398 0.13281-5.7617 0-15.066-0.56641-29.285-7.1133-39.516-18.191l-9.6016-10.344c-4.1602 1.8711-8.3633 3.6172-12.613 5.2305v75.266h0.003906c-0.03125 9.1836-3.6914 17.98-10.18 24.477-6.4922 6.4961-15.285 10.164-24.465 10.203zm-608.27-843.47-48 48.18c-2.6758 2.6797-4.1719 6.3164-4.1641 10.102v750.5c0.03125 9.1797 3.6875 17.977 10.176 24.473 6.4883 6.4961 15.277 10.164 24.457 10.211h597.08v41.09-0.003906c-0.070312 3.3125-2.7578 5.9688-6.0703 6h-654.9c-3.293-0.058594-5.9453-2.7109-6-6v-878.48c0.03125-3.3125 2.6875-6 6-6.0703zm45.457-5.0156c-0.47266 0.55078-0.98828 1.0625-1.5352 1.5352l-47.27 47.398h97.871c0.36328 0.011719 0.71484-0.12891 0.97266-0.38281 0.27734-0.28125 0.42969-0.66016 0.42188-1.0547v-98.031l-50.398 50.531zm441.68 142.03h-349.08v80.641h349.08zm-363.45-28.73c-3.8164 0-7.4805 1.5195-10.18 4.2188-2.7031 2.7031-4.2188 6.3633-4.2188 10.184v109.37c0 3.8203 1.5156 7.4805 4.2188 10.184 2.6992 2.6992 6.3633 4.2148 10.18 4.2148h377.81c3.8203 0 7.4805-1.5156 10.184-4.2148 2.6992-2.7031 4.2148-6.3633 4.2148-10.184v-109.4c0-3.8203-1.5156-7.4844-4.2148-10.184-2.7031-2.6992-6.3633-4.2188-10.184-4.2188zm-60.625 239.38h238.96c4.8906-0.34766 9.2695-3.1602 11.621-7.4609 2.3516-4.3008 2.3516-9.5039 0-13.809-2.3516-4.3008-6.7305-7.1133-11.621-7.4609h-238.96c-3.9844-0.28125-7.9062 1.1055-10.832 3.8281-2.9219 2.7266-4.582 6.543-4.582 10.539 0 3.9922 1.6602 7.8086 4.582 10.535 2.9258 2.7227 6.8477 4.1094 10.832 3.8281zm0 196.11h55.129v-0.003906c4.8711-0.37109 9.2188-3.1875 11.551-7.4766 2.3359-4.2891 2.3359-9.4688 0-13.762-2.332-4.2891-6.6797-7.1055-11.551-7.4766h-55.129c-3.9961-0.30469-7.9414 1.0703-10.883 3.793-2.9414 2.7266-4.6133 6.5547-4.6133 10.566 0 4.0078 1.6719 7.8359 4.6133 10.562 2.9414 2.7266 6.8867 4.1016 10.883 3.793zm473.69 167.71c-48.746-14.629-90.262-46.949-116.4-90.613-0.25-0.48047-0.52734-0.94531-0.82812-1.3906-16.09-27.395-25.508-58.188-27.492-89.895v-0.16797c0-0.63281-0.042969-1.2656-0.11719-1.8945-0.35156-6.3516-0.39453-12.703-0.13281-19.055 0.94922-24.277 6.2344-48.184 15.598-70.598 0.30469-0.58984 0.56641-1.1992 0.78125-1.8242 11.27-26.121 27.91-49.578 48.84-68.844 8.5742-7.9062 17.809-15.07 27.602-21.41 0.45703-0.26172 0.90234-0.55078 1.332-0.86328 38.484-24.422 84.055-35.215 129.41-30.641 45.348 4.5742 87.848 24.246 120.68 55.859 32.836 31.617 54.098 73.344 60.379 118.49 6.2852 45.145-2.7773 91.09-25.73 130.47l-0.32422 0.28906c-2.0742 1.9062-3.5391 4.3828-4.2109 7.1172-18.887 29.293-44.938 53.285-75.684 69.695-2.6992 0.48047-5.1992 1.7305-7.1992 3.6016l-0.16797 0.15625c-44.992 21.578-96.336 25.902-144.3 12.152-0.66797-0.25391-1.3555-0.45312-2.0547-0.59766zm-168.17 28.402h163.3c38.109 10.711 78.316 11.539 116.83 2.3984v66.457c0.011719 1.5938-0.61328 3.1289-1.7383 4.2617-1.1133 1.0938-2.6133 1.707-4.1758 1.7031h-660.45c-1.5586 0.003906-3.0586-0.61328-4.1641-1.7148-1.1172-1.1289-1.7461-2.6602-1.7383-4.25v-736.1h118.05c7.9805-0.050781 15.621-3.2422 21.258-8.8867 5.6406-5.6484 8.8242-13.289 8.8633-21.27v-118.34h518.17c1.5625-0.011719 3.0664 0.60156 4.1758 1.7031 1.125 1.1328 1.75 2.6641 1.7383 4.2578v360.88c-59.82-14.23-122.84-4.1758-175.27 27.957h-104.87c-3.9883-0.28125-7.9102 1.1055-10.836 3.8281-2.9219 2.7266-4.582 6.543-4.582 10.539 0 3.9922 1.6602 7.8086 4.582 10.535 2.9258 2.7227 6.8477 4.1094 10.836 3.8281h67.402c-21.039 19.742-38.195 43.254-50.578 69.312h-322.35c-3.9961-0.30859-7.9414 1.0664-10.883 3.793-2.9414 2.7266-4.6133 6.5547-4.6133 10.562 0 4.0117 1.6719 7.8398 4.6133 10.566 2.9414 2.7227 6.8867 4.0977 10.883 3.793h311.05c-6.3867 19.957-10.043 40.684-10.871 61.621-0.10938 2.5664-0.16797 5.1484-0.17969 7.7148h-178.32c-4.8711 0.37109-9.2188 3.1875-11.551 7.4766-2.3359 4.2891-2.3359 9.4727 0 13.762 2.332 4.2891 6.6797 7.1055 11.551 7.4766h179.83c2.793 23.98 9.3242 47.375 19.355 69.336h-320.87c-3.9844-0.28125-7.9062 1.1055-10.832 3.8281-2.9219 2.7266-4.582 6.5391-4.582 10.535s1.6602 7.8125 4.582 10.539c2.9258 2.7227 6.8477 4.1094 10.832 3.8281h336.57c17.824 27.699 41.297 51.328 68.879 69.336h-99.922c-4-0.30859-7.9453 1.0664-10.887 3.793-2.9414 2.7266-4.6133 6.5547-4.6133 10.562 0 4.0117 1.6719 7.8398 4.6133 10.566 2.9414 2.7227 6.8867 4.0977 10.887 3.793zm-305.52 0h238.95c4 0.30469 7.9453-1.0703 10.887-3.793 2.9414-2.7266 4.6133-6.5547 4.6133-10.566 0-4.0078-1.6719-7.8359-4.6133-10.562-2.9414-2.7266-6.8867-4.1016-10.887-3.793h-238.96c-3.9961-0.30859-7.9414 1.0664-10.883 3.793-2.9414 2.7266-4.6133 6.5547-4.6133 10.562 0 4.0117 1.6719 7.8398 4.6133 10.566 2.9414 2.7227 6.8867 4.0977 10.883 3.793z" fill-rule="evenodd"/>
</svg>
